<?xml version="1.0" encoding="UTF-8"?>
<svg xmlns="http://www.w3.org/2000/svg" id="Layer_1" data-name="Layer 1" viewBox="0 0 24 24">
  <path d="M20.311,9.593c-1.286-2.541-2.743-4.341-4.048-5.593h2.659c.829,0,1.5-.671,1.5-1.5s-.671-1.5-1.5-1.5H5.079c-.829,0-1.5,.671-1.5,1.5s.671,1.5,1.5,1.5h2.667c-1.308,1.254-2.771,3.055-4.056,5.593-.374,.739-.078,1.642,.661,2.016s1.641,.079,2.016-.661c1.359-2.685,2.921-4.376,4.135-5.392v15.944c0,.829,.671,1.5,1.5,1.5s1.5-.671,1.5-1.5V5.562c1.215,1.018,2.778,2.709,4.133,5.386,.264,.522,.792,.823,1.339,.823,.228,0,.459-.052,.676-.162,.739-.374,1.035-1.276,.661-2.016Z"/>
</svg>
