<?xml version="1.0" encoding="UTF-8"?>
<svg xmlns="http://www.w3.org/2000/svg" id="Layer_1" data-name="Layer 1" viewBox="0 0 24 24">
  <path d="m20.5,0h-9c-1.93,0-3.5,1.57-3.5,3.5v1.5h-.5c-1.93,0-3.5,1.57-3.5,3.5v1.5h-.5c-1.93,0-3.5,1.57-3.5,3.5v7c0,1.93,1.57,3.5,3.5,3.5h9c1.93,0,3.5-1.57,3.5-3.5v-1.5h.5c1.93,0,3.5-1.57,3.5-3.5v-1.5h.5c1.93,0,3.5-1.57,3.5-3.5V3.5c0-1.93-1.57-3.5-3.5-3.5ZM1,13.5c0-1.378,1.122-2.5,2.5-2.5h9c1.379,0,2.5,1.122,2.5,2.5v.271l-4.114,4.114c-.219.218-.574.219-.793,0l-1.428-1.428c-.576-.576-1.509-.609-2.138-.064l-5.359,4.986c-.104-.275-.168-.569-.168-.88v-7Zm14,7c0,1.378-1.121,2.5-2.5,2.5H3.5c-.702,0-1.335-.293-1.789-.76l5.484-5.102c.222-.191.557-.18.763.027l1.428,1.428c.609.609,1.6.609,2.207,0l3.407-3.407v5.314Zm4-5c0,1.378-1.121,2.5-2.5,2.5h-.5v-4.5c0-1.93-1.57-3.5-3.5-3.5h-7.5v-1.5c0-1.378,1.122-2.5,2.5-2.5h9c1.379,0,2.5,1.122,2.5,2.5v7Zm4-5c0,1.378-1.121,2.5-2.5,2.5h-.5v-4.5c0-1.93-1.57-3.5-3.5-3.5h-7.5v-1.5c0-1.378,1.122-2.5,2.5-2.5h9c1.379,0,2.5,1.122,2.5,2.5v7ZM3,14c0-.552.448-1,1-1s1,.448,1,1-.448,1-1,1-1-.448-1-1Z"/>
</svg>
