<?xml version="1.0" encoding="UTF-8"?>
<svg xmlns="http://www.w3.org/2000/svg" id="Layer_1" data-name="Layer 1" viewBox="0 0 24 24">
  <path d="M9,5c0-1.657,1.343-3,3-3s3,1.343,3,3-1.343,3-3,3-3-1.343-3-3Zm10,1c1.657,0,3-1.343,3-3s-1.343-3-3-3-3,1.343-3,3,1.343,3,3,3Zm-14,0c1.657,0,3-1.343,3-3S6.657,0,5,0,2,1.343,2,3s1.343,3,3,3Zm12,6.5v7.5h-1.5v4h-3v-4h-1v4h-3v-4h-1.5v-7.5c0-1.93,1.57-3.5,3.5-3.5h3c1.93,0,3.5,1.57,3.5,3.5Zm-7,4.5h4v-4.5c0-.276-.224-.5-.5-.5h-3c-.276,0-.5,.224-.5,.5v4.5ZM20.5,7h-3.922c-.109,.248-.241,.483-.387,.708,.941,.53,1.708,1.329,2.202,2.292h2.107c.276,0,.5,.224,.5,.5v4.5h-2v7h3v-4h2v-7.5c0-1.93-1.57-3.5-3.5-3.5Zm-13.078,0H3.5c-1.93,0-3.5,1.57-3.5,3.5v7.5H2v4h3v-7H3v-4.5c0-.276,.224-.5,.5-.5h2.107c.494-.963,1.261-1.761,2.202-2.292-.146-.225-.278-.46-.387-.708Z"/>
</svg>
