<svg id="Layer_1" viewBox="0 0 24 24" xmlns="http://www.w3.org/2000/svg" data-name="Layer 1"><path d="m16 6c.827 0 1.5-.673 1.5-1.5s-.673-1.5-1.5-1.5-1.5.673-1.5 1.5.673 1.5 1.5 1.5zm0-2c.276 0 .5.225.5.5s-.224.5-.5.5-.5-.225-.5-.5.224-.5.5-.5z"/><path d="m16 7c-1.444 0-2.702 1.009-2.99 2.398-.056.271.118.535.388.591.27.06.536-.117.591-.388.192-.928 1.038-1.602 2.01-1.602s1.818.674 2.01 1.602c.055.272.328.445.591.388.27-.056.444-.32.388-.591-.288-1.39-1.545-2.398-2.99-2.398z"/><path d="m23.596 12.827c-.38-.51-.959-.803-1.596-.821v-8.506c0-1.93-1.57-3.5-3.5-3.5h-5c-1.397 0-2.597.829-3.158 2.016-1.329.06-2.461.859-3 2-1.322.06-2.449.852-2.991 1.984h-.851c-1.93 0-3.5 1.57-3.5 3.5v10c0 2.481 2.019 4.5 4.5 4.5h13.558c2.003 0 3.735-1.289 4.316-3.229l1.538-6.138c.188-.626.072-1.285-.316-1.807zm-12.596-9.327c0-1.379 1.122-2.5 2.5-2.5h5c1.378 0 2.5 1.121 2.5 2.5v8.5h-10zm-3 2c0-1.223.884-2.239 2.046-2.454-.02.15-.046.299-.046.454v8.5h-2zm-3 2c0-1.223.884-2.239 2.046-2.454-.02.15-.046.299-.046.454v6.685c-.858.288-1.579.9-2 1.723zm-4 12v-10c0-1.379 1.122-2.5 2.5-2.5h.551c-.024.165-.051.329-.051.5v9.475l-1.627 5.303c-.834-.64-1.373-1.646-1.373-2.777zm21.948-5.132-1.538 6.138c-.447 1.492-1.794 2.494-3.352 2.494h-13.558c-.434 0-.85-.079-1.234-.225l2.488-8.111c.347-.995 1.296-1.664 2.361-1.664h13.828c.34 0 .65.154.85.424.198.267.257.603.155.944z"/></svg>