<svg id="Layer_1" viewBox="0 0 24 24" xmlns="http://www.w3.org/2000/svg" data-name="Layer 1"><path d="m17.819 13.804c-.718-.719-1.985-.706-2.676-.015l-1.251 1.151c-2.27-.94-3.861-2.519-4.852-4.811l1.046-1.234c.741-.742.741-1.949.042-2.644l-1.305-1.681c-.742-.742-1.949-.742-2.672-.018l-.989.893c-.006.005-.013.012-.019.018-.738.738-1.145 1.735-1.145 2.809 0 5.026 6.646 11.688 11.683 11.727.015.001.03.002.046.002 1.075 0 2.072-.407 2.826-1.164l.875-.97c.741-.742.741-1.949-.029-2.719l-1.581-1.344zm.886 3.375-.876.97c-.538.54-1.27.842-2.062.852-.014-.001-.027-.002-.041-.002-4.511 0-10.727-6.215-10.727-10.727 0-.802.299-1.544.843-2.093l.998-.901c.352-.353.924-.352 1.234-.048l1.305 1.681c.352.352.352.925-.027 1.307l-1.271 1.497c-.12.142-.152.338-.083.51 1.113 2.774 3.072 4.713 5.823 5.763.181.068.378.03.518-.099l1.497-1.378c.343-.343.906-.368 1.306.027l1.581 1.344c.352.352.352.925-.018 1.296zm.795-17.179h-15c-2.481 0-4.5 2.019-4.5 4.5v15c0 2.481 2.019 4.5 4.5 4.5h15c2.481 0 4.5-2.019 4.5-4.5v-15c0-2.481-2.019-4.5-4.5-4.5zm3.5 19.5c0 1.93-1.57 3.5-3.5 3.5h-15c-1.93 0-3.5-1.57-3.5-3.5v-15c0-1.93 1.57-3.5 3.5-3.5h15c1.93 0 3.5 1.57 3.5 3.5z"/></svg>