<svg id="Layer_1" viewBox="0 0 24 24" xmlns="http://www.w3.org/2000/svg" data-name="Layer 1"><path d="m19.5 0h-15c-2.481 0-4.5 2.019-4.5 4.5v15c0 2.481 2.019 4.5 4.5 4.5h15c2.481 0 4.5-2.019 4.5-4.5v-15c0-2.481-2.019-4.5-4.5-4.5zm3.5 4.5v7h-10.5v-10.5h7c1.93 0 3.5 1.57 3.5 3.5zm-18.5-3.5h7v10.5h-10.5v-7c0-1.93 1.57-3.5 3.5-3.5zm-3.5 18.5v-7h10.5v10.5h-7c-1.93 0-3.5-1.57-3.5-3.5zm18.5 3.5h-7v-10.5h10.5v7c0 1.93-1.57 3.5-3.5 3.5zm-16.194-16.331 1.771.747.709 1.77c.075.19.26.314.464.314s.389-.124.464-.314l.707-1.765 1.765-.707c.19-.075.314-.26.314-.464s-.124-.389-.314-.464l-1.765-.707-.707-1.765c-.15-.381-.777-.381-.928 0l-.705 1.76-1.758.666c-.191.072-.319.254-.323.459-.004.204.117.39.306.47zm2.335-.737c.131-.05.235-.152.287-.282l.322-.804.322.804c.051.127.151.228.278.278l.804.322-.804.322c-.127.051-.228.151-.278.278l-.322.804-.322-.804c-.049-.124-.146-.224-.27-.275l-.812-.343.795-.301zm9.165.737 1.771.747.709 1.77c.075.19.26.314.464.314s.389-.124.464-.314l.707-1.765 1.765-.707c.19-.075.314-.26.314-.464s-.124-.389-.314-.464l-1.765-.707-.707-1.765c-.15-.381-.777-.381-.928 0l-.705 1.76-1.758.666c-.191.072-.319.254-.323.459-.004.204.117.39.306.47zm2.335-.737c.131-.05.235-.152.287-.282l.322-.804.322.804c.051.127.151.228.278.278l.804.322-.804.322c-.127.051-.228.151-.278.278l-.322.804-.322-.804c-.049-.124-.146-.224-.27-.275l-.812-.343.795-.301zm-7.955 11.354-1.765-.707-.707-1.765c-.15-.381-.777-.381-.928 0l-.705 1.76-1.758.666c-.191.072-.319.254-.323.459-.004.204.117.39.306.47l1.771.747.709 1.77c.075.19.26.314.464.314s.389-.124.464-.314l.707-1.765 1.765-.707c.19-.075.314-.26.314-.464s-.124-.389-.314-.464zm-2.335.786c-.127.051-.228.151-.278.278l-.322.804-.322-.804c-.049-.124-.146-.224-.27-.275l-.812-.343.795-.301c.131-.05.235-.152.287-.282l.322-.804.322.804c.051.127.151.228.278.278l.804.322-.804.322zm13.835-.786-1.765-.707-.707-1.765c-.15-.381-.777-.381-.928 0l-.705 1.76-1.758.666c-.191.072-.319.254-.323.459-.004.204.117.39.306.47l1.771.747.709 1.77c.075.19.26.314.464.314s.389-.124.464-.314l.707-1.765 1.765-.707c.19-.075.314-.26.314-.464s-.124-.389-.314-.464zm-2.335.786c-.127.051-.228.151-.278.278l-.322.804-.322-.804c-.049-.124-.146-.224-.27-.275l-.812-.343.795-.301c.131-.05.235-.152.287-.282l.322-.804.322.804c.051.127.151.228.278.278l.804.322-.804.322z"/></svg>